<svg xmlns="http://www.w3.org/2000/svg" viewBox="0 0 64 64" role="img" aria-label="maatriks.ai favicon">
  <rect width="64" height="64" fill="#050505" />
  <path
    fill="#E8A838"
    transform="translate(5.74 52) scale(0.02685 -0.02685)"
    d="M96 0V1490H734L868 1024Q885 964 907 865Q929 766 950.5 652.5Q972 539 990 434.5Q1008 330 1018 258H943Q953 330 970.5 434.5Q988 539 1009.5 652.5Q1031 766 1052.5 865Q1074 964 1091 1024L1223 1490H1862V0H1454V576Q1454 627 1456.5 711.5Q1459 796 1462 897Q1465 998 1467.5 1100Q1470 1202 1470 1288H1493Q1475 1193 1452 1090.5Q1429 988 1405 890.5Q1381 793 1359 711.5Q1337 630 1321 576L1148 0H812L636 576Q620 630 597.5 711.5Q575 793 550 890.5Q525 988 501.5 1090.5Q478 1193 459 1288H488Q488 1202 490.5 1100Q493 998 496 897Q499 796 501.5 711.5Q504 627 504 576V0Z"
  />
</svg>
